<svg width="26" height="26" viewBox="0 0 26 26" fill="none" xmlns="http://www.w3.org/2000/svg">
<path d="M11.9495 6.26202C12.2668 5.94472 12.2668 5.43028 11.9495 5.11298C11.6322 4.79567 11.1178 4.79567 10.8005 5.11298L3.48798 12.4255C3.17067 12.7428 3.17067 13.2572 3.48798 13.5745L10.8005 20.887C11.1178 21.2043 11.6322 21.2043 11.9495 20.887C12.2668 20.5697 12.2668 20.0553 11.9495 19.738L6.02405 13.8125H21.9375C22.3862 13.8125 22.75 13.4487 22.75 13C22.75 12.5513 22.3862 12.1875 21.9375 12.1875H6.02405L11.9495 6.26202Z" fill="#262626"/>
<path d="M12.0932 6.40566C12.4898 6.00903 12.4898 5.36597 12.0932 4.96934C11.6965 4.57272 11.0535 4.57272 10.6568 4.96934L3.34434 12.2818C2.94772 12.6785 2.94772 13.3215 3.34434 13.7182L10.6568 21.0307C11.0535 21.4273 11.6965 21.4273 12.0932 21.0307C12.4898 20.634 12.4898 19.991 12.0932 19.5943L6.51444 14.0156H21.9375C22.4984 14.0156 22.9531 13.5609 22.9531 13C22.9531 12.4391 22.4984 11.9844 21.9375 11.9844H6.51444L12.0932 6.40566Z" fill="#262626"/>
</svg>
