<svg width="28" height="28" viewBox="0 0 28 28" fill="none" xmlns="http://www.w3.org/2000/svg">
<path d="M14.875 7.875C14.875 7.39175 14.4832 7 14 7C13.5168 7 13.125 7.39175 13.125 7.875V14C13.125 14.4832 13.5168 14.875 14 14.875H20.125C20.6082 14.875 21 14.4832 21 14C21 13.5168 20.6082 13.125 20.125 13.125H14.875V7.875Z" fill="#262626"/>
<path fill-rule="evenodd" clip-rule="evenodd" d="M14 2.625C7.71776 2.625 2.625 7.71776 2.625 14C2.625 20.2822 7.71776 25.375 14 25.375C20.2822 25.375 25.375 20.2822 25.375 14C25.375 7.71776 20.2822 2.625 14 2.625ZM4.375 14C4.375 8.68426 8.68426 4.375 14 4.375C19.3157 4.375 23.625 8.68426 23.625 14C23.625 19.3157 19.3157 23.625 14 23.625C8.68426 23.625 4.375 19.3157 4.375 14Z" fill="#262626"/>
</svg>
