<svg width="20" height="20" viewBox="0 0 20 20" fill="none" xmlns="http://www.w3.org/2000/svg">
<path fill-rule="evenodd" clip-rule="evenodd" d="M16.4062 9.0625C16.4062 10.8091 15.7965 12.4134 14.7782 13.6739L18.052 16.9476C18.3571 17.2527 18.3571 17.7474 18.052 18.0525C17.7469 18.3576 17.2522 18.3576 16.9471 18.0525L13.6733 14.7787C12.4129 15.7967 10.8089 16.4062 9.0625 16.4062C5.00666 16.4062 1.71875 13.1183 1.71875 9.0625C1.71875 5.00666 5.00666 1.71875 9.0625 1.71875C13.1183 1.71875 16.4062 5.00666 16.4062 9.0625ZM3.28125 9.0625C3.28125 5.8696 5.8696 3.28125 9.0625 3.28125C12.2554 3.28125 14.8438 5.8696 14.8438 9.0625C14.8438 10.6581 14.1973 12.1027 13.1521 13.1488C12.1058 14.196 10.6598 14.8438 9.0625 14.8438C5.8696 14.8438 3.28125 12.2554 3.28125 9.0625Z" fill="#8F8F8F"/>
</svg>
