<svg width="20" height="20" viewBox="0 0 20 20" fill="none" xmlns="http://www.w3.org/2000/svg">
<path d="M7.05806 15.8081C6.81398 16.0521 6.81398 16.4479 7.05806 16.6919C7.30214 16.936 7.69786 16.936 7.94194 16.6919L14.1919 10.4419C14.436 10.1979 14.436 9.80214 14.1919 9.55806L7.94194 3.30806C7.69786 3.06398 7.30214 3.06398 7.05806 3.30806C6.81398 3.55214 6.81398 3.94786 7.05806 4.19194L12.8661 10L7.05806 15.8081Z" fill="#262626"/>
<path d="M6.94757 15.6976C6.64248 16.0027 6.64248 16.4973 6.94757 16.8024C7.25267 17.1075 7.74733 17.1075 8.05243 16.8024L14.3024 10.5524C14.6075 10.2473 14.6075 9.75267 14.3024 9.44757L8.05243 3.19757C7.74733 2.89248 7.25267 2.89248 6.94757 3.19757C6.64248 3.50267 6.64248 3.99733 6.94757 4.30243L12.6451 10L6.94757 15.6976Z" fill="#262626"/>
</svg>
