<svg width="28" height="28" viewBox="0 0 28 28" fill="none" xmlns="http://www.w3.org/2000/svg">
<path fill-rule="evenodd" clip-rule="evenodd" d="M9.625 3.5C9.625 3.01675 9.23325 2.625 8.75 2.625C8.26675 2.625 7.875 3.01675 7.875 3.5V4.375H5.25C4.2835 4.375 3.5 5.1585 3.5 6.125V23.625C3.5 24.5915 4.2835 25.375 5.25 25.375H22.75C23.7165 25.375 24.5 24.5915 24.5 23.625V6.125C24.5 5.1585 23.7165 4.375 22.75 4.375H20.125V3.5C20.125 3.01675 19.7332 2.625 19.25 2.625C18.7668 2.625 18.375 3.01675 18.375 3.5V4.375H9.625V3.5ZM5.25 6.125H7.875V7C7.875 7.48325 8.26675 7.875 8.75 7.875C9.23325 7.875 9.625 7.48325 9.625 7V6.125H18.375V7C18.375 7.48325 18.7668 7.875 19.25 7.875C19.7332 7.875 20.125 7.48325 20.125 7V6.125H22.75V9.625H5.25V6.125ZM5.25 11.375H22.75V23.625H5.25V11.375Z" fill="#262626"/>
</svg>
