<svg width="32" height="32" viewBox="0 0 32 32" fill="none" xmlns="http://www.w3.org/2000/svg">
<path d="M6 4C5.46957 4 4.96086 4.21071 4.58579 4.58579C4.21071 4.96086 4 5.46957 4 6V26C4 26.5304 4.21071 27.0391 4.58579 27.4142C4.96086 27.7893 5.46957 28 6 28H15C15.5523 28 16 27.5523 16 27C16 26.4477 15.5523 26 15 26H6L6 6L15 6C15.5523 6 16 5.55228 16 5C16 4.44772 15.5523 4 15 4H6Z" fill="#262626"/>
<path d="M22.4607 10.0429C22.0702 9.65237 21.437 9.65237 21.0465 10.0429C20.656 10.4334 20.656 11.0666 21.0465 11.4571L24.5894 15H13C12.4477 15 12 15.4477 12 16C12 16.5523 12.4477 17 13 17H24.5894L21.0465 20.5429C20.656 20.9334 20.656 21.5666 21.0465 21.9571C21.437 22.3476 22.0702 22.3476 22.4607 21.9571L27.7107 16.7071C28.1013 16.3166 28.1013 15.6834 27.7107 15.2929L22.4607 10.0429Z" fill="#262626"/>
</svg>
