<svg width="20" height="20" viewBox="0 0 20 20" fill="none" xmlns="http://www.w3.org/2000/svg">
<path d="M9.19194 4.81694C9.43602 4.57286 9.43602 4.17714 9.19194 3.93306C8.94786 3.68898 8.55214 3.68898 8.30806 3.93306L2.68306 9.55806C2.43898 9.80214 2.43898 10.1979 2.68306 10.4419L8.30806 16.0669C8.55214 16.311 8.94786 16.311 9.19194 16.0669C9.43602 15.8229 9.43602 15.4271 9.19194 15.1831L4.63388 10.625H16.875C17.2202 10.625 17.5 10.3452 17.5 10C17.5 9.65482 17.2202 9.375 16.875 9.375H4.63388L9.19194 4.81694Z" fill="white"/>
<path d="M9.30243 4.92743C9.60752 4.62233 9.60752 4.12767 9.30243 3.82257C8.99733 3.51748 8.50267 3.51748 8.19757 3.82257L2.57257 9.44757C2.26748 9.75267 2.26748 10.2473 2.57257 10.5524L8.19757 16.1774C8.50267 16.4825 8.99733 16.4825 9.30243 16.1774C9.60752 15.8723 9.60752 15.3777 9.30243 15.0726L5.0111 10.7812H16.875C17.3065 10.7812 17.6562 10.4315 17.6562 10C17.6562 9.56853 17.3065 9.21875 16.875 9.21875H5.0111L9.30243 4.92743Z" fill="white"/>
</svg>
