<svg width="12" height="12" viewBox="0 0 12 12" fill="none" xmlns="http://www.w3.org/2000/svg">
<path d="M2.89016 6.48484C2.74372 6.33839 2.50628 6.33839 2.35983 6.48484C2.21339 6.63128 2.21339 6.86872 2.35983 7.01517L5.73484 10.3902C5.88128 10.5366 6.11872 10.5366 6.26517 10.3902L9.64017 7.01517C9.78661 6.86872 9.78661 6.63128 9.64017 6.48483C9.49372 6.33839 9.25628 6.33839 9.10984 6.48483L6.375 9.21967L6.375 1.875C6.375 1.66789 6.20711 1.5 6 1.5C5.79289 1.5 5.625 1.66789 5.625 1.875L5.625 9.21967L2.89016 6.48484Z" fill="#E43F16"/>
<path d="M2.95646 6.41854C2.7734 6.23549 2.4766 6.23549 2.29354 6.41854C2.11049 6.6016 2.11049 6.8984 2.29354 7.08146L5.66854 10.4565C5.8516 10.6395 6.1484 10.6395 6.33146 10.4565L9.70646 7.08146C9.88952 6.8984 9.88952 6.6016 9.70646 6.41854C9.5234 6.23549 9.2266 6.23549 9.04354 6.41854L6.46875 8.99334L6.46875 1.875C6.46875 1.61612 6.25888 1.40625 6 1.40625C5.74112 1.40625 5.53125 1.61612 5.53125 1.875L5.53125 8.99334L2.95646 6.41854Z" fill="#E43F16"/>
</svg>
