<svg width="28" height="28" viewBox="0 0 28 28" fill="none" xmlns="http://www.w3.org/2000/svg">
<path fill-rule="evenodd" clip-rule="evenodd" d="M6.12524 4.375C5.15875 4.375 4.37524 5.1585 4.37524 6.125V11.375C4.37524 12.3415 5.15875 13.125 6.12524 13.125H11.3752C12.3417 13.125 13.1252 12.3415 13.1252 11.375V6.125C13.1252 5.1585 12.3417 4.375 11.3752 4.375H6.12524ZM6.12524 6.125H11.3752V11.375H6.12524V6.125Z" fill="white"/>
<path fill-rule="evenodd" clip-rule="evenodd" d="M16.6252 4.375C15.6587 4.375 14.8752 5.1585 14.8752 6.125V11.375C14.8752 12.3415 15.6587 13.125 16.6252 13.125H21.8752C22.8417 13.125 23.6252 12.3415 23.6252 11.375V6.125C23.6252 5.1585 22.8417 4.375 21.8752 4.375H16.6252ZM16.6252 6.125H21.8752V11.375H16.6252V6.125Z" fill="white"/>
<path fill-rule="evenodd" clip-rule="evenodd" d="M6.12524 14.875C5.15875 14.875 4.37524 15.6585 4.37524 16.625V21.875C4.37524 22.8415 5.15875 23.625 6.12524 23.625H11.3752C12.3417 23.625 13.1252 22.8415 13.1252 21.875V16.625C13.1252 15.6585 12.3417 14.875 11.3752 14.875H6.12524ZM6.12524 16.625H11.3752V21.875H6.12524V16.625Z" fill="white"/>
<path d="M16.6252 15.75C16.6252 15.2668 16.2335 14.875 15.7502 14.875C15.267 14.875 14.8752 15.2668 14.8752 15.75V19.25C14.8752 19.7332 15.267 20.125 15.7502 20.125C16.2335 20.125 16.6252 19.7332 16.6252 19.25V15.75Z" fill="white"/>
<path d="M20.1252 15.75C20.1252 15.2668 19.7334 14.875 19.2502 14.875C18.7669 14.875 18.3752 15.2668 18.3752 15.75V21.875H15.7502C15.2669 21.875 14.8752 22.2668 14.8752 22.75C14.8752 23.2332 15.2669 23.625 15.7502 23.625H19.2502C19.7334 23.625 20.1252 23.2332 20.1252 22.75V18.375H22.7502C23.2335 18.375 23.6252 17.9832 23.6252 17.5C23.6252 17.0168 23.2335 16.625 22.7502 16.625H20.1252V15.75Z" fill="white"/>
<path d="M23.6252 21C23.6252 20.5168 23.2335 20.125 22.7502 20.125C22.267 20.125 21.8752 20.5168 21.8752 21V22.75C21.8752 23.2332 22.267 23.625 22.7502 23.625C23.2335 23.625 23.6252 23.2332 23.6252 22.75V21Z" fill="white"/>
</svg>
