<svg width="32" height="32" viewBox="0 0 32 32" fill="none" xmlns="http://www.w3.org/2000/svg">
<path d="M5 6.89648C4.44772 6.89648 4 7.33758 4 7.88171C4 8.42583 4.44772 8.86693 5 8.86693H27C27.5523 8.86693 28 8.42583 28 7.88171C28 7.33758 27.5523 6.89648 27 6.89648H5Z" fill="#262626"/>
<path d="M5 14.7783C4.44772 14.7783 4 15.2194 4 15.7635C4 16.3076 4.44772 16.7487 5 16.7487H27C27.5523 16.7487 28 16.3076 28 15.7635C28 15.2194 27.5523 14.7783 27 14.7783H5Z" fill="#262626"/>
<path d="M5 22.66C4.44772 22.66 4 23.1011 4 23.6453C4 24.1894 4.44772 24.6305 5 24.6305H27C27.5523 24.6305 28 24.1894 28 23.6453C28 23.1011 27.5523 22.66 27 22.66H5Z" fill="#262626"/>
</svg>
