<svg width="14" height="14" viewBox="0 0 14 14" fill="none" xmlns="http://www.w3.org/2000/svg">
<path d="M2.93436 4.94064C2.7635 4.76979 2.4865 4.76979 2.31564 4.94064C2.14479 5.1115 2.14479 5.3885 2.31564 5.55936L6.69064 9.93436C6.8615 10.1052 7.1385 10.1052 7.30936 9.93436L11.6844 5.55936C11.8552 5.3885 11.8552 5.1115 11.6844 4.94064C11.5135 4.76979 11.2365 4.76979 11.0656 4.94064L7 9.00628L2.93436 4.94064Z" fill="#6516E4"/>
<path d="M3.0117 4.8633C2.79813 4.64973 2.45187 4.64973 2.2383 4.8633C2.02473 5.07687 2.02473 5.42313 2.2383 5.6367L6.6133 10.0117C6.82687 10.2253 7.17313 10.2253 7.3867 10.0117L11.7617 5.6367C11.9753 5.42313 11.9753 5.07687 11.7617 4.8633C11.5481 4.64973 11.2019 4.64973 10.9883 4.8633L7 8.8516L3.0117 4.8633Z" fill="#6516E4"/>
</svg>
